<?xml version="1.0" encoding="UTF-8" standalone="no"?>
<svg width="100%" height="100%" viewBox="0 0 60 10" version="1.1" xmlns="http://www.w3.org/2000/svg" xml:space="preserve" style="fill-rule:evenodd;clip-rule:evenodd;stroke-linejoin:round;stroke-miterlimit:2;">
    <rect x="0" y="0" width="60" height="10" style="fill:#ffffff;"/>
    <g id="text" transform="matrix(0.138366,0,0,0.138366,-3.765097,0.726172)">
        <g transform="matrix(1,0,0,0.994806,0,5.142405)">
            <path d="M265.554,27.415L265.554,39.608C265.554,40.141 265.343,40.652 264.968,41.029C264.593,41.406 264.084,41.618 263.554,41.618C262.196,41.618 260.409,41.618 259.051,41.618C257.947,41.618 257.051,40.718 257.051,39.608C257.051,33.17 257.051,13.113 257.051,6.676C257.051,5.565 257.947,4.665 259.051,4.665C263.271,4.665 272.702,4.665 272.702,4.665C278.98,4.665 284.077,9.762 284.077,16.04C284.077,22.318 278.98,27.415 272.702,27.415L265.554,27.415ZM265.554,13.212L265.554,18.868L272.702,18.868C274.587,18.868 275.575,17.625 275.575,16.04C275.575,14.455 274.81,13.212 272.702,13.212L265.554,13.212Z" style="fill:rgb(57,57,57);"/>
        </g>
        <g transform="matrix(1,0,0,1,-1,5)">
            <path d="M43.392,40.614C43.026,41.193 42.388,41.544 41.702,41.544C40.338,41.544 37.987,41.544 36.301,41.544C35.197,41.544 34.301,40.649 34.301,39.544C34.301,33.14 34.301,13.187 34.301,6.783C34.301,5.679 35.197,4.783 36.301,4.783C37.658,4.783 39.446,4.783 40.804,4.783C41.334,4.783 41.843,4.994 42.218,5.369C42.593,5.744 42.804,6.253 42.804,6.783C42.804,12.308 42.804,27.375 42.804,27.375C42.804,27.375 53.819,9.97 56.512,5.714C56.879,5.134 57.517,4.783 58.202,4.783C59.567,4.783 61.917,4.783 63.604,4.783C64.708,4.783 65.604,5.679 65.604,6.783C65.604,13.187 65.604,33.14 65.604,39.544C65.604,40.649 64.708,41.544 63.604,41.544C62.246,41.544 60.458,41.544 59.101,41.544C58.571,41.544 58.062,41.334 57.687,40.958C57.312,40.583 57.101,40.075 57.101,39.544C57.101,34.019 57.101,18.953 57.101,18.953C57.101,18.953 46.086,36.358 43.392,40.614Z" style="fill:rgb(57,57,57);"/>
        </g>
        <g transform="matrix(1,0,0,1,330.400007,5)">
            <path d="M43.392,40.614C43.026,41.193 42.388,41.544 41.702,41.544C40.338,41.544 37.987,41.544 36.301,41.544C35.197,41.544 34.301,40.649 34.301,39.544C34.301,33.14 34.301,13.187 34.301,6.783C34.301,5.679 35.197,4.783 36.301,4.783C37.658,4.783 39.446,4.783 40.804,4.783C41.334,4.783 41.843,4.994 42.218,5.369C42.593,5.744 42.804,6.253 42.804,6.783C42.804,12.308 42.804,27.375 42.804,27.375C42.804,27.375 53.819,9.97 56.512,5.714C56.879,5.134 57.517,4.783 58.202,4.783C59.567,4.783 61.917,4.783 63.604,4.783C64.708,4.783 65.604,5.679 65.604,6.783C65.604,13.187 65.604,33.14 65.604,39.544C65.604,40.649 64.708,41.544 63.604,41.544C62.246,41.544 60.458,41.544 59.101,41.544C58.571,41.544 58.062,41.334 57.687,40.958C57.312,40.583 57.101,40.075 57.101,39.544C57.101,34.019 57.101,18.953 57.101,18.953C57.101,18.953 46.086,36.358 43.392,40.614Z" style="fill:rgb(57,57,57);"/>
        </g>
        <g transform="matrix(1,0,0,1,54.000008,5)">
            <path d="M36.301,41.544C35.197,41.544 34.301,40.649 34.301,39.544C34.301,33.14 34.301,13.187 34.301,6.783C34.301,5.679 35.197,4.783 36.301,4.783C37.658,4.783 39.446,4.783 40.804,4.783C41.334,4.783 41.843,4.994 42.218,5.369C42.593,5.744 42.804,6.253 42.804,6.783C42.804,10.68 42.804,18.913 42.804,18.913L57.101,18.913L57.101,6.783C57.101,6.253 57.312,5.744 57.687,5.369C58.062,4.994 58.571,4.783 59.101,4.783C60.458,4.783 62.246,4.783 63.604,4.783C64.708,4.783 65.604,5.679 65.604,6.783C65.604,13.187 65.604,33.14 65.604,39.544C65.604,40.649 64.708,41.544 63.604,41.544C62.246,41.544 60.458,41.544 59.101,41.544C58.571,41.544 58.062,41.334 57.687,40.958C57.312,40.583 57.101,40.075 57.101,39.544C57.101,35.647 57.101,27.415 57.101,27.415L42.804,27.415L42.804,39.544C42.804,40.075 42.593,40.583 42.218,40.958C41.843,41.334 41.334,41.544 40.804,41.544C39.446,41.544 37.658,41.544 36.301,41.544Z" style="fill:rgb(57,57,57);"/>
        </g>
        <g transform="matrix(1,0,0,1,167.625031,5)">
            <path d="M36.301,41.544C35.197,41.544 34.301,40.649 34.301,39.544C34.301,33.14 34.301,13.187 34.301,6.783C34.301,5.679 35.197,4.783 36.301,4.783C41.053,4.783 52.977,4.783 57.729,4.783C58.833,4.783 59.729,5.679 59.729,6.783C59.729,8.141 59.729,9.928 59.729,11.286C59.729,11.816 59.518,12.325 59.143,12.7C58.768,13.075 58.259,13.286 57.729,13.286L42.804,13.286L42.804,18.913L57.729,18.913C58.259,18.913 58.768,19.123 59.143,19.498C59.518,19.873 59.729,20.382 59.729,20.913L59.729,25.415C59.729,25.946 59.518,26.454 59.143,26.829C58.768,27.204 58.259,27.415 57.729,27.415L42.804,27.415L42.804,33.042L57.729,33.042C58.259,33.042 58.768,33.252 59.143,33.628C59.518,34.003 59.729,34.511 59.729,35.042L59.729,39.544C59.729,40.649 58.833,41.544 57.729,41.544C52.977,41.544 41.053,41.544 36.301,41.544Z" style="fill:rgb(57,57,57);"/>
        </g>
        <g transform="matrix(1,0,0,0.148205,382.853905,45.835375)">
            <path d="M67,-52.587L69.122,-52.587C70.226,-52.587 71.122,-46.545 71.122,-39.092C71.122,-21.207 71.122,10.165 71.122,28.049C71.122,35.502 70.226,41.544 69.122,41.544C67.764,41.544 65.976,41.544 64.619,41.544C64.089,41.544 63.58,40.122 63.205,37.592C62.83,35.061 62.619,31.628 62.619,28.049C62.619,17.561 62.619,4.783 62.619,4.783L42.804,4.783L42.804,28.049C42.804,31.628 42.593,35.061 42.218,37.592C41.843,40.122 41.334,41.544 40.804,41.544C39.446,41.544 37.658,41.544 36.301,41.544C35.197,41.544 34.301,35.502 34.301,28.049C34.301,10.165 34.301,-21.207 34.301,-39.092C34.301,-46.545 35.197,-52.587 36.301,-52.587C37.521,-52.587 38.848,-52.587 38.848,-52.587C43.304,-106.107 45.211,-165.558 45.141,-229.607C45.135,-233.207 45.343,-236.673 45.718,-239.234C46.093,-241.794 46.604,-243.234 47.138,-243.234C51.326,-243.258 60.846,-243.258 65,-243.258C66.104,-243.258 67,-237.217 67,-229.764C67,-186.271 67,-52.587 67,-52.587ZM48.747,-52.587L58.497,-52.587L58.497,-185.888L53.475,-185.888C53.026,-140.542 51.657,-95.94 48.747,-52.587Z" style="fill:rgb(57,57,57);"/>
        </g>
        <g transform="matrix(1,0,0,1,0,4)">
            <path d="M321.326,36.93C312.991,35.481 306.77,29.864 306.77,23.164C306.77,16.464 312.991,10.847 321.326,9.398L321.326,7.783C321.326,7.253 321.537,6.744 321.912,6.369C322.287,5.994 322.796,5.783 323.326,5.783C324.684,5.783 326.471,5.783 327.829,5.783C328.359,5.783 328.868,5.994 329.243,6.369C329.618,6.744 329.829,7.253 329.829,7.783C329.829,8.618 329.829,9.398 329.829,9.398C338.164,10.847 344.385,16.464 344.385,23.164C344.385,29.864 338.164,35.481 329.829,36.93L329.829,40.544C329.829,41.075 329.618,41.583 329.243,41.958C328.868,42.334 328.359,42.544 327.829,42.544C326.471,42.544 324.684,42.544 323.326,42.544C322.796,42.544 322.287,42.334 321.912,41.958C321.537,41.583 321.326,41.075 321.326,40.544C321.326,38.931 321.326,36.93 321.326,36.93ZM321.326,15.91C317.208,16.918 314.682,19.485 314.682,23.164C314.682,26.843 317.208,29.41 321.326,30.417L321.326,15.91ZM329.829,30.417C333.947,29.41 336.473,26.843 336.473,23.164C336.473,19.485 333.947,16.918 329.829,15.91L329.829,30.417Z" style="fill:rgb(57,57,57);"/>
        </g>
        <g transform="matrix(1,0,0,1,120.775012,5)">
            <path d="M34.301,13.286L24.901,13.286C23.797,13.286 22.901,12.39 22.901,11.286C22.901,9.928 22.901,8.141 22.901,6.783C22.901,6.253 23.112,5.744 23.487,5.369C23.862,4.994 24.371,4.783 24.901,4.783C30.546,4.783 46.558,4.783 52.204,4.783C52.734,4.783 53.243,4.994 53.618,5.369C53.993,5.744 54.204,6.253 54.204,6.783C54.204,8.141 54.204,9.928 54.204,11.286C54.204,12.39 53.308,13.286 52.204,13.286C48.934,13.286 42.804,13.286 42.804,13.286L42.804,39.544C42.804,40.075 42.593,40.583 42.218,40.958C41.843,41.334 41.334,41.544 40.804,41.544L36.301,41.544C35.771,41.544 35.262,41.334 34.887,40.958C34.512,40.583 34.301,40.075 34.301,39.544L34.301,13.286Z" style="fill:rgb(57,57,57);"/>
        </g>
    </g>
</svg>
