<?xml version="1.0" encoding="UTF-8" standalone="no"?>
<svg width="100%" height="100%" viewBox="0 0 60 18" version="1.1" xmlns="http://www.w3.org/2000/svg" style="fill-rule:evenodd;clip-rule:evenodd;stroke-linejoin:round;stroke-miterlimit:2;">
    <rect id="backfround" x="-0" y="0" width="60" height="18" style="fill:rgb(235,235,235);"/>
    <g id="logo" transform="matrix(1.077789,0,0,1.077789,-2.333658,-1.185545)">
        <g transform="matrix(0.114901,0,0,0.114901,1.419565,-2.370104)">
            <path d="M108.99,178.826C88.298,161.386 87.009,129.742 115.49,112.951C165.734,83.328 268.891,95.967 324.219,84.445C393.335,70.053 409,54.397 425.99,37.701C417.708,51.924 416.479,80.479 412.756,99.233C399.445,166.28 330.536,172.382 272.49,178.826L490.99,178.826L490.99,30.201L6.49,30.201L6.49,178.826L108.99,178.826Z" style="fill:rgb(26,181,1);"/>
        </g>
        <g transform="matrix(0.114901,0,0,0.114901,1.419565,-2.370104)">
            <path d="M151.068,178.826C285.488,147.876 365.113,133.109 385.74,91.201C374.364,133.253 329.57,146.006 207.24,178.826L151.068,178.826Z" style="fill:rgb(26,181,1);"/>
        </g>
    </g>
</svg>
