<?xml version="1.0" encoding="UTF-8" standalone="no"?>
<svg width="100%" height="100%" viewBox="0 0 32 32" version="1.1" xmlns="http://www.w3.org/2000/svg">
<g id="interfeed_logo"><path id="stem" d="M7.4,29.5c4.9,-2.5 11.9,-10.9 13.3,-14.6c-0.9,6.1 -6.7,12.8 -10.9,15.9c-0.8,-0.3 -1.5,-0.7 -2.4,-1.3Z" style="fill:#19b200;"/><path id="leaf" d="M5.8,28.3c-3.5,-2.9 -5.8,-7.4 -5.8,-12.3c0,-8.8 7.2,-16 16,-16c8.8,0 16,7.2 16,16c0,8.8 -7.2,16 -16,16c-1.3,0 -2.6,-0.2 -3.8,-0.5c2.8,-1.2 6.4,-3.6 8.9,-8.4c3.3,-6.3 2.4,-18.6 2.4,-18.6c-2,3 -6,6.7 -9.5,9.2c-4,2.8 -8.3,3.8 -9.2,7.7c-0.5,2.3 -0.2,4.5 1,6.9Z" style="fill:#19b200;"/></g></svg>