<?xml version="1.0" encoding="UTF-8" standalone="no"?>
<svg width="100%" height="100%" viewBox="0 0 32 32" version="1.1" xmlns="http://www.w3.org/2000/svg">
<g id="interfeed_logo">
<path id="leaf" d="M6.1,32l-6.1,0l0,-32l32,0l0,32l-14.2,0c2.6,-1.7 5.4,-4.1 7,-7.1c4.3,-7.7 3,-23.1 3,-23.1c-2.4,3.8 -7.5,8.3 -11.8,11.4c-4.9,3.5 -10.3,4.7 -11.4,9.6c-0.7,3 -0.1,6 1.5,9.2Z" style="fill:#19b200;"/><path id="stem" d="M9.8,32c6.7,-4.4 11.4,-10.3 14.6,-17.3c-1.4,6.3 -5,12.1 -11.2,17.3l-3.4,0Z" style="fill:#19b200;"/>
</g>
</svg>